<!DOCTYPE svg PUBLIC "-//W3C//DTD SVG 1.1//EN" "http://www.w3.org/Graphics/SVG/1.1/DTD/svg11.dtd">
<!-- Uploaded to: SVG Repo, www.svgrepo.com, Transformed by: SVG Repo Mixer Tools -->
<svg version="1.1" id="Layer_1" xmlns="http://www.w3.org/2000/svg" xmlns:xlink="http://www.w3.org/1999/xlink" viewBox="-25.6 -25.6 563.20 563.20" xml:space="preserve" width="256px" height="256px" fill="#000000">
<g id="SVGRepo_bgCarrier" stroke-width="0"/>
<g id="SVGRepo_tracerCarrier" stroke-linecap="round" stroke-linejoin="round" stroke="#2ba1d4" stroke-width="39.935922000000005"> <g> <rect x="83.22" y="145.729" style="fill:#ffea05;" width="113.912" height="151.63"/> <path style="fill:#ffea05;" d="M83.22,271.536h-3.877c-27.608,0-49.99-22.381-49.99-49.99l0,0c0-27.608,22.381-49.99,49.99-49.99 h3.877V271.536z"/> </g> <path style="fill:#000000;" d="M482.647,260.754c8.085,0,14.642-6.555,14.642-14.642V14.642C497.289,6.555,490.732,0,482.647,0 s-14.642,6.555-14.642,14.642v21.528l-270.882,94.916H83.22c-8.087,0-14.642,6.555-14.642,14.642v12.1 c-30.531,5.142-53.868,31.749-53.868,63.718c0,31.97,23.337,58.577,53.868,63.719v12.1c0,7.744,6.016,14.068,13.627,14.59 l79.633,191.036c2.274,5.456,7.603,9.008,13.514,9.008h76.649c4.712,0,9.135-2.268,11.886-6.092 c2.751-3.826,3.493-8.741,1.994-13.208L221.309,359.89c-2.574-7.665-10.873-11.795-18.539-9.223 c-7.666,2.573-11.795,10.873-9.223,18.539l38.096,113.507h-46.531l-71.16-170.708h83.172l270.88,94.916v21.528 c0,8.087,6.557,14.642,14.642,14.642c8.085,0,14.642-6.555,14.642-14.642V323.617c0-8.087-6.557-14.642-14.642-14.642 c-8.085,0-14.642,6.555-14.642,14.642v52.275l-29.235-10.243V192.064c0-8.087-6.557-14.642-14.642-14.642 c-8.085,0-14.642,6.555-14.642,14.642v163.324l-197.713-69.279V156.981l197.714-69.277v26.256c0,8.087,6.557,14.642,14.642,14.642 s14.642-6.555,14.642-14.642V77.443L468.005,67.2v178.913C468.005,254.199,474.56,260.754,482.647,260.754z M97.861,160.369h84.629 v122.353H97.861v-11.186v-99.981V160.369z M43.993,221.547c0-15.74,10.341-29.109,24.585-33.673v67.347 C54.335,250.656,43.993,237.285,43.993,221.547z"/> </g>
<g id="SVGRepo_iconCarrier"> <g> <rect x="83.22" y="145.729" style="fill:#ffea05;" width="113.912" height="151.63"/> <path style="fill:#ffea05;" d="M83.22,271.536h-3.877c-27.608,0-49.99-22.381-49.99-49.99l0,0c0-27.608,22.381-49.99,49.99-49.99 h3.877V271.536z"/> </g> <path style="fill:#000000;" d="M482.647,260.754c8.085,0,14.642-6.555,14.642-14.642V14.642C497.289,6.555,490.732,0,482.647,0 s-14.642,6.555-14.642,14.642v21.528l-270.882,94.916H83.22c-8.087,0-14.642,6.555-14.642,14.642v12.1 c-30.531,5.142-53.868,31.749-53.868,63.718c0,31.97,23.337,58.577,53.868,63.719v12.1c0,7.744,6.016,14.068,13.627,14.59 l79.633,191.036c2.274,5.456,7.603,9.008,13.514,9.008h76.649c4.712,0,9.135-2.268,11.886-6.092 c2.751-3.826,3.493-8.741,1.994-13.208L221.309,359.89c-2.574-7.665-10.873-11.795-18.539-9.223 c-7.666,2.573-11.795,10.873-9.223,18.539l38.096,113.507h-46.531l-71.16-170.708h83.172l270.88,94.916v21.528 c0,8.087,6.557,14.642,14.642,14.642c8.085,0,14.642-6.555,14.642-14.642V323.617c0-8.087-6.557-14.642-14.642-14.642 c-8.085,0-14.642,6.555-14.642,14.642v52.275l-29.235-10.243V192.064c0-8.087-6.557-14.642-14.642-14.642 c-8.085,0-14.642,6.555-14.642,14.642v163.324l-197.713-69.279V156.981l197.714-69.277v26.256c0,8.087,6.557,14.642,14.642,14.642 s14.642-6.555,14.642-14.642V77.443L468.005,67.2v178.913C468.005,254.199,474.56,260.754,482.647,260.754z M97.861,160.369h84.629 v122.353H97.861v-11.186v-99.981V160.369z M43.993,221.547c0-15.74,10.341-29.109,24.585-33.673v67.347 C54.335,250.656,43.993,237.285,43.993,221.547z"/> </g>
</svg>